<svg width="1440" height="89" viewBox="0 0 1440 89" fill="none" xmlns="http://www.w3.org/2000/svg">
<mask id="path-1-outside-1_2603_1909" maskUnits="userSpaceOnUse" x="0" y="0" width="1440" height="89" fill="black">
<rect fill="white" width="1440" height="89"/>
<path d="M0 0H1440V88H0V0Z"/>
</mask>
<path d="M0 0H1440V88H0V0Z" fill="white"/>
<path d="M1440 87H0V89H1440V87Z" fill="#B5B5B5" mask="url(#path-1-outside-1_2603_1909)"/>
<rect width="65.3996" height="22.872" transform="translate(160 32.564)" fill="white"/>
<path d="M174.183 48.644C173.127 49.916 168.016 50.064 166.096 50.064C162.304 50.064 160 47.616 160 44.064C160 40.536 162.328 38.088 166.096 38.088C167.92 38.088 173.175 39.284 174.231 40.556L168.832 42.048C168.064 41.208 167.224 40.872 166.096 40.872C164.488 40.872 163.096 42.168 163.096 44.064C163.096 46.128 164.392 47.28 166.096 47.28C167.104 47.28 168.256 46.896 168.88 46.104L174.183 48.644Z" fill="black"/>
<path d="M188.804 38.876L181.82 55.436H178.387L180.62 50.276L175.795 38.876H179.203L181.604 44.972L182.3 47.156L182.972 44.972L185.372 38.876H188.804Z" fill="black"/>
<path d="M196.649 41.42C194.921 41.42 193.673 42.74 193.673 44.54C193.673 46.316 194.921 47.636 196.649 47.636C198.329 47.636 199.481 46.388 199.481 44.54C199.481 42.668 198.329 41.42 196.649 41.42ZM190.673 50.156V32.564H193.721V38.828L193.673 39.644C194.177 38.972 195.713 38.588 196.769 38.588C200.537 38.588 202.649 41.348 202.649 44.54C202.649 48.14 200.489 50.468 196.769 50.468C195.857 50.468 194.393 50.036 193.793 49.316L193.817 49.964V50.156H190.673Z" fill="black"/>
<path d="M215.338 48.716C214.45 49.868 212.41 50.564 210.658 50.564C206.842 50.564 204.706 47.948 204.706 44.564C204.706 41.108 206.818 38.588 210.538 38.588C214.234 38.588 216.346 41.108 216.346 44.564C216.346 44.948 216.346 45.188 216.322 45.524H207.826C207.994 46.94 209.05 47.828 210.658 47.828C211.81 47.828 212.89 47.444 213.562 46.7L215.338 48.716ZM207.874 43.46H213.154C213.01 42.188 211.954 41.324 210.538 41.324C209.122 41.324 207.994 42.188 207.874 43.46Z" fill="black"/>
<path d="M224.752 41.708C224.128 41.492 223.576 41.42 222.928 41.42C222.496 41.42 222.136 41.444 221.8 41.588V50.156H218.704V39.38C219.64 38.9 221.248 38.564 222.808 38.564C223.48 38.564 224.68 38.636 225.4 38.9L224.752 41.708Z" fill="black"/>
<rect x="287.933" y="16" width="372" height="56" rx="8" fill="#F5F5F5"/>
<path d="M323.933 52L320.155 48.2156M322.249 43.1579C322.249 45.0563 321.495 46.8769 320.152 48.2193C318.81 49.5617 316.989 50.3158 315.091 50.3158C313.193 50.3158 311.372 49.5617 310.03 48.2193C308.687 46.8769 307.933 45.0563 307.933 43.1579C307.933 41.2595 308.687 39.4389 310.03 38.0965C311.372 36.7541 313.193 36 315.091 36C316.989 36 318.81 36.7541 320.152 38.0965C321.495 39.4389 322.249 41.2595 322.249 43.1579V43.1579Z" stroke="#989898" stroke-width="1.5" stroke-linecap="round"/>
<path opacity="0.5" d="M336.405 46.252H337.916C337.97 46.7396 338.214 47.1315 338.647 47.4277C339.08 47.724 339.622 47.8721 340.274 47.8721C340.894 47.8721 341.404 47.7285 341.805 47.4414C342.211 47.1543 342.414 46.7897 342.414 46.3477C342.414 45.9648 342.27 45.6527 341.983 45.4111C341.696 45.165 341.233 44.9645 340.595 44.8096L339.317 44.502C338.41 44.2832 337.74 43.9574 337.307 43.5244C336.879 43.0915 336.665 42.5309 336.665 41.8428C336.665 40.9951 336.997 40.3047 337.663 39.7715C338.333 39.2383 339.196 38.9717 340.253 38.9717C341.292 38.9717 342.14 39.2383 342.796 39.7715C343.453 40.3001 343.792 40.9906 343.815 41.8428H342.325C342.279 41.3551 342.067 40.9701 341.689 40.6875C341.315 40.4049 340.83 40.2637 340.233 40.2637C339.64 40.2637 339.157 40.4004 338.784 40.6738C338.415 40.9473 338.23 41.3027 338.23 41.7402C338.23 42.0866 338.369 42.3714 338.647 42.5947C338.925 42.8135 339.383 43.0026 340.021 43.1621L341.108 43.4287C342.12 43.6657 342.849 44.0007 343.295 44.4336C343.747 44.862 343.972 45.4385 343.972 46.1631C343.972 47.0837 343.63 47.8151 342.947 48.3574C342.263 48.8952 341.336 49.1641 340.165 49.1641C339.066 49.1641 338.175 48.902 337.492 48.3779C336.813 47.8493 336.45 47.1406 336.405 46.252ZM349.427 43.3877C349.104 43.0413 348.687 42.8682 348.176 42.8682C347.666 42.8682 347.242 43.0436 346.905 43.3945C346.568 43.7409 346.381 44.1898 346.344 44.7412H349.94C349.922 44.1852 349.751 43.734 349.427 43.3877ZM349.933 46.8877H351.334C351.23 47.5485 350.892 48.0885 350.323 48.5078C349.753 48.9271 349.058 49.1367 348.238 49.1367C347.185 49.1367 346.356 48.8063 345.75 48.1455C345.148 47.4801 344.847 46.5778 344.847 45.4385C344.847 44.3083 345.148 43.3991 345.75 42.7109C346.356 42.0228 347.165 41.6787 348.176 41.6787C349.17 41.6787 349.958 42.0046 350.542 42.6562C351.125 43.3034 351.417 44.1738 351.417 45.2676V45.7734H346.337V45.8623C346.337 46.4912 346.513 46.9948 346.864 47.373C347.215 47.7513 347.684 47.9404 348.272 47.9404C348.687 47.9404 349.042 47.8447 349.338 47.6533C349.635 47.4619 349.833 47.2067 349.933 46.8877ZM355.081 47.9541C355.6 47.9541 356.035 47.7969 356.386 47.4824C356.742 47.1634 356.919 46.7715 356.919 46.3066V45.7393L355.149 45.8486C354.707 45.8805 354.365 45.9899 354.124 46.1768C353.887 46.359 353.768 46.6051 353.768 46.915C353.768 47.2295 353.887 47.4824 354.124 47.6738C354.365 47.8607 354.684 47.9541 355.081 47.9541ZM354.67 49.123C353.964 49.123 353.388 48.9225 352.941 48.5215C352.499 48.1204 352.278 47.5986 352.278 46.9561C352.278 46.3271 352.51 45.8281 352.975 45.459C353.44 45.0853 354.098 44.8757 354.951 44.8301L356.919 44.7139V44.1602C356.919 43.7591 356.792 43.4469 356.537 43.2236C356.281 42.9958 355.928 42.8818 355.477 42.8818C355.058 42.8818 354.716 42.9753 354.452 43.1621C354.192 43.349 354.028 43.6064 353.959 43.9346H352.565C352.606 43.2692 352.893 42.7269 353.426 42.3076C353.959 41.8883 354.661 41.6787 355.532 41.6787C356.402 41.6787 357.095 41.8929 357.61 42.3213C358.129 42.7497 358.389 43.3239 358.389 44.0439V49H356.974V47.8174H356.94C356.735 48.2139 356.423 48.5306 356.003 48.7676C355.589 49.0046 355.144 49.123 354.67 49.123ZM359.825 49V41.8086H361.233V43.0322H361.267C361.386 42.613 361.597 42.2848 361.903 42.0479C362.208 41.8109 362.573 41.6924 362.997 41.6924C363.138 41.6924 363.306 41.7106 363.502 41.7471V43.1211C363.37 43.0664 363.149 43.0391 362.839 43.0391C362.365 43.0391 361.989 43.1872 361.711 43.4834C361.438 43.7796 361.301 44.1829 361.301 44.6934V49H359.825ZM370.277 44.2832H368.869C368.791 43.8776 368.604 43.5472 368.308 43.292C368.016 43.0368 367.64 42.9092 367.18 42.9092C366.606 42.9092 366.146 43.1348 365.799 43.5859C365.458 44.0326 365.287 44.6387 365.287 45.4043C365.287 46.1836 365.458 46.7943 365.799 47.2363C366.146 47.6784 366.611 47.8994 367.194 47.8994C367.645 47.8994 368.014 47.7832 368.301 47.5508C368.593 47.3138 368.782 46.9857 368.869 46.5664H370.291C370.213 47.3366 369.889 47.9587 369.32 48.4326C368.755 48.902 368.042 49.1367 367.18 49.1367C366.146 49.1367 365.321 48.804 364.706 48.1387C364.09 47.4688 363.783 46.5573 363.783 45.4043C363.783 44.265 364.09 43.3604 364.706 42.6904C365.321 42.016 366.141 41.6787 367.167 41.6787C368.06 41.6787 368.784 41.9294 369.34 42.4307C369.896 42.9274 370.208 43.5449 370.277 44.2832ZM371.391 49V39.1357H372.854V43.0117H372.888C373.089 42.5879 373.383 42.262 373.77 42.0342C374.157 41.8018 374.622 41.6855 375.165 41.6855C375.948 41.6855 376.564 41.9271 377.01 42.4102C377.461 42.8932 377.687 43.5449 377.687 44.3652V49H376.204V44.6523C376.204 44.1146 376.069 43.6976 375.8 43.4014C375.536 43.1051 375.146 42.957 374.631 42.957C374.089 42.957 373.658 43.1302 373.339 43.4766C373.025 43.8184 372.868 44.2741 372.868 44.8438V49H371.391Z" fill="#656565"/>
<path d="M732.795 49.5H731.045V44.5078H725.256V49.5H723.506V38.2266H725.256V42.9922H731.045V38.2266H732.795V49.5ZM741.029 48.5156C740.321 49.276 739.375 49.6562 738.193 49.6562C737.011 49.6562 736.066 49.276 735.357 48.5156C734.649 47.75 734.295 46.7083 734.295 45.3906C734.295 44.0781 734.649 43.0417 735.357 42.2812C736.066 41.5156 737.011 41.1328 738.193 41.1328C739.375 41.1328 740.321 41.5156 741.029 42.2812C741.737 43.0417 742.092 44.0781 742.092 45.3906C742.092 46.7083 741.737 47.75 741.029 48.5156ZM738.193 48.2656C738.865 48.2656 739.396 48.013 739.787 47.5078C740.177 47.0026 740.373 46.2969 740.373 45.3906C740.373 44.4896 740.175 43.7865 739.779 43.2812C739.388 42.776 738.86 42.5234 738.193 42.5234C737.526 42.5234 736.995 42.776 736.599 43.2812C736.209 43.7865 736.013 44.4896 736.013 45.3906C736.013 46.2969 736.209 47.0026 736.599 47.5078C736.995 48.013 737.526 48.2656 738.193 48.2656ZM743.396 49.5V41.2812H745.006V42.6641H745.045C745.232 42.2005 745.532 41.8307 745.943 41.5547C746.355 41.2786 746.834 41.1406 747.381 41.1406C747.948 41.1406 748.43 41.2812 748.826 41.5625C749.227 41.8438 749.511 42.2396 749.677 42.75H749.717C749.93 42.25 750.263 41.8568 750.717 41.5703C751.175 41.2839 751.696 41.1406 752.279 41.1406C753.092 41.1406 753.743 41.388 754.232 41.8828C754.722 42.3776 754.967 43.0339 754.967 43.8516V49.5H753.271V44.2578C753.271 43.7266 753.133 43.3151 752.857 43.0234C752.586 42.7318 752.201 42.5859 751.701 42.5859C751.201 42.5859 750.792 42.7526 750.474 43.0859C750.162 43.4193 750.006 43.8464 750.006 44.3672V49.5H748.349V44.1328C748.349 43.6589 748.209 43.2839 747.927 43.0078C747.646 42.7266 747.269 42.5859 746.795 42.5859C746.295 42.5859 745.883 42.7604 745.56 43.1094C745.243 43.4531 745.084 43.8906 745.084 44.4219V49.5H743.396ZM761.467 43.0859C761.097 42.6901 760.62 42.4922 760.037 42.4922C759.454 42.4922 758.969 42.6927 758.584 43.0938C758.198 43.4896 757.985 44.0026 757.943 44.6328H762.052C762.032 43.9974 761.836 43.4818 761.467 43.0859ZM762.045 47.0859H763.646C763.526 47.8411 763.141 48.4583 762.49 48.9375C761.839 49.4167 761.045 49.6562 760.107 49.6562C758.904 49.6562 757.956 49.2786 757.263 48.5234C756.576 47.763 756.232 46.7318 756.232 45.4297C756.232 44.138 756.576 43.099 757.263 42.3125C757.956 41.526 758.881 41.1328 760.037 41.1328C761.172 41.1328 762.073 41.5052 762.74 42.25C763.407 42.9896 763.74 43.9844 763.74 45.2344V45.8125H757.935V45.9141C757.935 46.6328 758.136 47.2083 758.537 47.6406C758.938 48.0729 759.474 48.2891 760.146 48.2891C760.62 48.2891 761.026 48.1797 761.365 47.9609C761.704 47.7422 761.93 47.4505 762.045 47.0859Z" fill="black"/>
<path opacity="0.3" d="M824.849 49.5L823.818 46.4531H819.521L818.49 49.5H816.67L820.74 38.2266H822.631L826.701 49.5H824.849ZM821.646 40.1016L819.967 45.0469H823.373L821.693 40.1016H821.646ZM832.115 49.6406C831.521 49.6406 830.998 49.5052 830.545 49.2344C830.092 48.9635 829.735 48.5859 829.474 48.1016H829.443V49.5H827.802V38.2266H829.49V42.6797H829.529C829.779 42.2005 830.128 41.8255 830.576 41.5547C831.029 41.2839 831.545 41.1484 832.123 41.1484C833.159 41.1484 833.987 41.5312 834.607 42.2969C835.232 43.0625 835.545 44.0938 835.545 45.3906C835.545 46.6927 835.235 47.7266 834.615 48.4922C833.995 49.2578 833.162 49.6406 832.115 49.6406ZM831.662 42.5703C831.016 42.5703 830.49 42.8307 830.084 43.3516C829.683 43.8672 829.482 44.5469 829.482 45.3906C829.482 46.2396 829.683 46.9219 830.084 47.4375C830.49 47.9531 831.016 48.2109 831.662 48.2109C832.323 48.2109 832.847 47.9583 833.232 47.4531C833.618 46.9479 833.81 46.2604 833.81 45.3906C833.81 44.526 833.618 43.8411 833.232 43.3359C832.847 42.8255 832.323 42.5703 831.662 42.5703ZM843.232 48.5156C842.524 49.276 841.579 49.6562 840.396 49.6562C839.214 49.6562 838.269 49.276 837.56 48.5156C836.852 47.75 836.498 46.7083 836.498 45.3906C836.498 44.0781 836.852 43.0417 837.56 42.2812C838.269 41.5156 839.214 41.1328 840.396 41.1328C841.579 41.1328 842.524 41.5156 843.232 42.2812C843.941 43.0417 844.295 44.0781 844.295 45.3906C844.295 46.7083 843.941 47.75 843.232 48.5156ZM840.396 48.2656C841.068 48.2656 841.599 48.013 841.99 47.5078C842.381 47.0026 842.576 46.2969 842.576 45.3906C842.576 44.4896 842.378 43.7865 841.982 43.2812C841.592 42.776 841.063 42.5234 840.396 42.5234C839.73 42.5234 839.198 42.776 838.802 43.2812C838.412 43.7865 838.217 44.4896 838.217 45.3906C838.217 46.2969 838.412 47.0026 838.802 47.5078C839.198 48.013 839.73 48.2656 840.396 48.2656ZM852.646 41.2812V49.5H851.029V48.1094H850.99C850.516 49.1354 849.667 49.6484 848.443 49.6484C847.547 49.6484 846.842 49.3776 846.326 48.8359C845.816 48.2891 845.56 47.5443 845.56 46.6016V41.2812H847.248V46.2734C847.248 46.9036 847.396 47.3828 847.693 47.7109C847.99 48.0339 848.427 48.1953 849.006 48.1953C849.61 48.1953 850.086 48.0026 850.435 47.6172C850.784 47.2318 850.959 46.7161 850.959 46.0703V41.2812H852.646ZM854.81 39.3359H856.506V41.2812H858.068V42.6172H856.506V47.1484C856.506 47.5026 856.586 47.763 856.748 47.9297C856.909 48.0964 857.162 48.1797 857.506 48.1797C857.756 48.1797 857.941 48.1667 858.06 48.1406V49.4766C857.852 49.5286 857.539 49.5547 857.123 49.5547C856.295 49.5547 855.701 49.3854 855.342 49.0469C854.987 48.7031 854.81 48.1328 854.81 47.3359V42.6172H853.615V41.2812H854.81V39.3359Z" fill="black"/>
<path opacity="0.3" d="M917.263 49.6875C915.68 49.6875 914.422 49.1641 913.49 48.1172C912.563 47.0703 912.099 45.651 912.099 43.8594C912.099 42.0781 912.566 40.6641 913.498 39.6172C914.43 38.5651 915.685 38.0391 917.263 38.0391C918.545 38.0391 919.625 38.401 920.506 39.125C921.386 39.8438 921.899 40.7891 922.045 41.9609H920.31C920.154 41.237 919.797 40.6589 919.24 40.2266C918.688 39.7891 918.029 39.5703 917.263 39.5703C916.237 39.5703 915.417 39.9609 914.802 40.7422C914.193 41.5182 913.888 42.5573 913.888 43.8594C913.888 45.1771 914.193 46.224 914.802 47C915.412 47.7708 916.235 48.1562 917.271 48.1562C918.052 48.1562 918.709 47.9661 919.24 47.5859C919.776 47.2057 920.133 46.6745 920.31 45.9922H922.052C921.839 47.1589 921.31 48.0677 920.467 48.7188C919.628 49.3646 918.56 49.6875 917.263 49.6875ZM929.795 48.5156C929.086 49.276 928.141 49.6562 926.959 49.6562C925.776 49.6562 924.831 49.276 924.123 48.5156C923.414 47.75 923.06 46.7083 923.06 45.3906C923.06 44.0781 923.414 43.0417 924.123 42.2812C924.831 41.5156 925.776 41.1328 926.959 41.1328C928.141 41.1328 929.086 41.5156 929.795 42.2812C930.503 43.0417 930.857 44.0781 930.857 45.3906C930.857 46.7083 930.503 47.75 929.795 48.5156ZM926.959 48.2656C927.631 48.2656 928.162 48.013 928.552 47.5078C928.943 47.0026 929.138 46.2969 929.138 45.3906C929.138 44.4896 928.941 43.7865 928.545 43.2812C928.154 42.776 927.625 42.5234 926.959 42.5234C926.292 42.5234 925.761 42.776 925.365 43.2812C924.974 43.7865 924.779 44.4896 924.779 45.3906C924.779 46.2969 924.974 47.0026 925.365 47.5078C925.761 48.013 926.292 48.2656 926.959 48.2656ZM932.162 49.5V41.2812H933.771V42.6562H933.81C934.039 42.1771 934.373 41.8047 934.81 41.5391C935.248 41.2734 935.776 41.1406 936.396 41.1406C937.297 41.1406 937.998 41.4115 938.498 41.9531C938.998 42.4896 939.248 43.2318 939.248 44.1797V49.5H937.552V44.5078C937.552 43.8828 937.404 43.4089 937.107 43.0859C936.816 42.7578 936.381 42.5938 935.802 42.5938C935.209 42.5938 934.735 42.7865 934.381 43.1719C934.026 43.5573 933.849 44.0703 933.849 44.7109V49.5H932.162ZM941.373 39.3359H943.068V41.2812H944.631V42.6172H943.068V47.1484C943.068 47.5026 943.149 47.763 943.31 47.9297C943.472 48.0964 943.724 48.1797 944.068 48.1797C944.318 48.1797 944.503 48.1667 944.623 48.1406V49.4766C944.414 49.5286 944.102 49.5547 943.685 49.5547C942.857 49.5547 942.263 49.3854 941.904 49.0469C941.55 48.7031 941.373 48.1328 941.373 47.3359V42.6172H940.177V41.2812H941.373V39.3359ZM948.771 48.3047C949.365 48.3047 949.862 48.125 950.263 47.7656C950.67 47.401 950.873 46.9531 950.873 46.4219V45.7734L948.849 45.8984C948.344 45.9349 947.954 46.0599 947.677 46.2734C947.407 46.4818 947.271 46.763 947.271 47.1172C947.271 47.4766 947.407 47.7656 947.677 47.9844C947.954 48.1979 948.318 48.3047 948.771 48.3047ZM948.302 49.6406C947.495 49.6406 946.836 49.4115 946.326 48.9531C945.821 48.4948 945.568 47.8984 945.568 47.1641C945.568 46.4453 945.834 45.875 946.365 45.4531C946.896 45.026 947.649 44.7865 948.623 44.7344L950.873 44.6016V43.9688C950.873 43.5104 950.727 43.1536 950.435 42.8984C950.144 42.638 949.74 42.5078 949.224 42.5078C948.745 42.5078 948.355 42.6146 948.052 42.8281C947.756 43.0417 947.568 43.3359 947.49 43.7109H945.896C945.943 42.9505 946.271 42.3307 946.881 41.8516C947.49 41.3724 948.292 41.1328 949.287 41.1328C950.282 41.1328 951.073 41.3776 951.662 41.8672C952.256 42.3568 952.552 43.013 952.552 43.8359V49.5H950.935V48.1484H950.896C950.662 48.6016 950.305 48.9635 949.826 49.2344C949.352 49.5052 948.844 49.6406 948.302 49.6406ZM961.248 44.1094H959.638C959.55 43.6458 959.336 43.2682 958.998 42.9766C958.664 42.6849 958.235 42.5391 957.709 42.5391C957.052 42.5391 956.526 42.7969 956.131 43.3125C955.74 43.8229 955.545 44.5156 955.545 45.3906C955.545 46.2812 955.74 46.9792 956.131 47.4844C956.526 47.9896 957.058 48.2422 957.724 48.2422C958.24 48.2422 958.662 48.1094 958.99 47.8438C959.323 47.5729 959.539 47.1979 959.638 46.7188H961.263C961.175 47.599 960.805 48.3099 960.154 48.8516C959.508 49.388 958.693 49.6562 957.709 49.6562C956.526 49.6562 955.584 49.276 954.881 48.5156C954.177 47.75 953.826 46.7083 953.826 45.3906C953.826 44.0885 954.177 43.0547 954.881 42.2891C955.584 41.5182 956.521 41.1328 957.693 41.1328C958.714 41.1328 959.542 41.4193 960.177 41.9922C960.813 42.5599 961.17 43.2656 961.248 44.1094ZM962.951 39.3359H964.646V41.2812H966.209V42.6172H964.646V47.1484C964.646 47.5026 964.727 47.763 964.888 47.9297C965.05 48.0964 965.302 48.1797 965.646 48.1797C965.896 48.1797 966.081 48.1667 966.201 48.1406V49.4766C965.993 49.5286 965.68 49.5547 965.263 49.5547C964.435 49.5547 963.842 49.3854 963.482 49.0469C963.128 48.7031 962.951 48.1328 962.951 47.3359V42.6172H961.756V41.2812H962.951V39.3359ZM972.802 38.2266V45.3906C972.802 46.2135 973.05 46.8776 973.545 47.3828C974.045 47.8828 974.735 48.1328 975.615 48.1328C976.495 48.1328 977.185 47.8828 977.685 47.3828C978.185 46.8776 978.435 46.2135 978.435 45.3906V38.2266H980.177V45.5391C980.177 46.7734 979.766 47.7734 978.943 48.5391C978.12 49.3047 977.011 49.6875 975.615 49.6875C974.219 49.6875 973.11 49.3047 972.287 48.5391C971.464 47.7734 971.052 46.7734 971.052 45.5391V38.2266H972.802ZM981.904 43.6094C981.904 42.875 982.201 42.2786 982.795 41.8203C983.388 41.362 984.164 41.1328 985.123 41.1328C986.034 41.1328 986.782 41.3646 987.365 41.8281C987.954 42.2865 988.261 42.8828 988.287 43.6172H986.701C986.659 43.2422 986.495 42.9479 986.209 42.7344C985.922 42.5208 985.545 42.4141 985.076 42.4141C984.618 42.4141 984.248 42.5156 983.967 42.7188C983.691 42.9219 983.552 43.1849 983.552 43.5078C983.552 44.0078 983.972 44.362 984.81 44.5703L986.193 44.8906C987.021 45.0885 987.607 45.3594 987.951 45.7031C988.3 46.0417 988.474 46.5156 988.474 47.125C988.474 47.875 988.157 48.4844 987.521 48.9531C986.891 49.4219 986.071 49.6562 985.06 49.6562C984.097 49.6562 983.31 49.4271 982.701 48.9688C982.097 48.5104 981.761 47.901 981.693 47.1406H983.365C983.433 47.5365 983.618 47.8411 983.92 48.0547C984.222 48.263 984.628 48.3672 985.138 48.3672C985.644 48.3672 986.042 48.2708 986.334 48.0781C986.631 47.8802 986.779 47.6146 986.779 47.2812C986.779 47.0156 986.691 46.8047 986.513 46.6484C986.336 46.4922 986.034 46.3594 985.607 46.25L984.138 45.8906C982.649 45.5312 981.904 44.7708 981.904 43.6094Z" fill="black"/>
<path opacity="0.3" d="M1047.03 49.5H1042.51V38.2266H1047.01C1048.01 38.2266 1048.81 38.4844 1049.41 39C1050.02 39.5104 1050.32 40.1901 1050.32 41.0391C1050.32 41.638 1050.12 42.1745 1049.73 42.6484C1049.35 43.1172 1048.87 43.3984 1048.31 43.4922V43.5547C1049.08 43.6432 1049.7 43.9401 1050.17 44.4453C1050.64 44.9453 1050.87 45.5677 1050.87 46.3125C1050.87 47.3073 1050.53 48.0885 1049.85 48.6562C1049.17 49.2188 1048.23 49.5 1047.03 49.5ZM1044.26 39.6562V43.0234H1046.22C1046.97 43.0234 1047.55 42.8724 1047.96 42.5703C1048.36 42.2682 1048.57 41.8385 1048.57 41.2812C1048.57 40.7604 1048.4 40.3594 1048.05 40.0781C1047.71 39.7969 1047.22 39.6562 1046.58 39.6562H1044.26ZM1044.26 48.0703H1046.67C1047.46 48.0703 1048.06 47.9115 1048.47 47.5938C1048.88 47.276 1049.08 46.8125 1049.08 46.2031C1049.08 44.974 1048.25 44.3594 1046.57 44.3594H1044.26V48.0703ZM1052.24 49.5V38.2266H1053.93V49.5H1052.24ZM1062.03 48.5156C1061.32 49.276 1060.38 49.6562 1059.19 49.6562C1058.01 49.6562 1057.07 49.276 1056.36 48.5156C1055.65 47.75 1055.29 46.7083 1055.29 45.3906C1055.29 44.0781 1055.65 43.0417 1056.36 42.2812C1057.07 41.5156 1058.01 41.1328 1059.19 41.1328C1060.38 41.1328 1061.32 41.5156 1062.03 42.2812C1062.74 43.0417 1063.09 44.0781 1063.09 45.3906C1063.09 46.7083 1062.74 47.75 1062.03 48.5156ZM1059.19 48.2656C1059.86 48.2656 1060.4 48.013 1060.79 47.5078C1061.18 47.0026 1061.37 46.2969 1061.37 45.3906C1061.37 44.4896 1061.17 43.7865 1060.78 43.2812C1060.39 42.776 1059.86 42.5234 1059.19 42.5234C1058.53 42.5234 1058 42.776 1057.6 43.2812C1057.21 43.7865 1057.01 44.4896 1057.01 45.3906C1057.01 46.2969 1057.21 47.0026 1057.6 47.5078C1058 48.013 1058.53 48.2656 1059.19 48.2656ZM1067.9 48.1328C1068.56 48.1328 1069.09 47.8828 1069.48 47.3828C1069.88 46.8828 1070.08 46.2109 1070.08 45.3672C1070.08 44.5234 1069.88 43.8464 1069.48 43.3359C1069.09 42.8255 1068.56 42.5703 1067.9 42.5703C1067.25 42.5703 1066.72 42.8229 1066.33 43.3281C1065.95 43.8333 1065.76 44.513 1065.76 45.3672C1065.76 46.2214 1065.95 46.8958 1066.33 47.3906C1066.72 47.8854 1067.25 48.1328 1067.9 48.1328ZM1067.91 52.5938C1066.95 52.5938 1066.14 52.3646 1065.47 51.9062C1064.81 51.4479 1064.43 50.8594 1064.33 50.1406H1066.02C1066.14 50.4844 1066.38 50.7604 1066.72 50.9688C1067.08 51.1771 1067.5 51.2812 1067.97 51.2812C1068.63 51.2812 1069.14 51.1094 1069.51 50.7656C1069.89 50.4271 1070.08 49.974 1070.08 49.4062V48.0547H1070.04C1069.81 48.5078 1069.46 48.8672 1069 49.1328C1068.54 49.3984 1068.02 49.5312 1067.44 49.5312C1066.41 49.5312 1065.58 49.1562 1064.96 48.4062C1064.34 47.651 1064.03 46.6354 1064.03 45.3594C1064.03 44.0677 1064.34 43.0443 1064.96 42.2891C1065.58 41.5286 1066.42 41.1484 1067.48 41.1484C1068.06 41.1484 1068.58 41.2865 1069.04 41.5625C1069.5 41.8333 1069.85 42.2083 1070.1 42.6875H1070.13V41.2812H1071.77V49.3516C1071.77 50.3307 1071.42 51.1146 1070.72 51.7031C1070.02 52.2969 1069.08 52.5938 1067.91 52.5938Z" fill="black"/>
<path d="M1147 35C1144.24 35 1142 37.216 1142 39.95C1142 42.157 1142.88 47.395 1151.49 52.69C1151.64 52.7839 1151.82 52.8335 1152 52.8335C1152.18 52.8335 1152.36 52.7839 1152.51 52.69C1161.12 47.395 1162 42.157 1162 39.95C1162 37.216 1159.76 35 1157 35C1154.24 35 1152 38 1152 38C1152 38 1149.76 35 1147 35Z" stroke="black" stroke-width="1.5" stroke-linecap="round" stroke-linejoin="round"/>
<rect width="32" height="32" transform="translate(1192 28)" fill="white"/>
<path d="M1195 33H1199L1202 50H1218M1202 44.6667H1217.59C1217.71 44.6667 1217.82 44.6267 1217.91 44.5535C1218 44.4802 1218.06 44.3782 1218.08 44.2648L1219.88 35.2648C1219.9 35.1922 1219.89 35.1173 1219.88 35.0455C1219.86 34.9737 1219.82 34.9068 1219.78 34.8496C1219.73 34.7923 1219.67 34.7463 1219.6 34.7146C1219.54 34.683 1219.46 34.6666 1219.39 34.6667H1200M1204 54C1204 54.5523 1203.55 55 1203 55C1202.45 55 1202 54.5523 1202 54C1202 53.4477 1202.45 53 1203 53C1203.55 53 1204 53.4477 1204 54ZM1218 54C1218 54.5523 1217.55 55 1217 55C1216.45 55 1216 54.5523 1216 54C1216 53.4477 1216.45 53 1217 53C1217.55 53 1218 53.4477 1218 54Z" stroke="black" stroke-width="1.5" stroke-linecap="round" stroke-linejoin="round"/>
<path d="M1272 55V52.3333C1272 50.9188 1271.52 49.5623 1270.67 48.5621C1269.82 47.5619 1268.67 47 1267.47 47H1259.53C1258.33 47 1257.18 47.5619 1256.33 48.5621C1255.48 49.5623 1255 50.9188 1255 52.3333V55M1269 37.5C1269 39.9853 1266.99 42 1264.5 42C1262.01 42 1260 39.9853 1260 37.5C1260 35.0147 1262.01 33 1264.5 33C1266.99 33 1269 35.0147 1269 37.5Z" stroke="black" stroke-width="1.5" stroke-linecap="round" stroke-linejoin="round"/>
</svg>
